<?xml version="1.0" standalone="no"?>
<!DOCTYPE svg PUBLIC "-//W3C//DTD SVG 20010904//EN"
 "http://www.w3.org/TR/2001/REC-SVG-20010904/DTD/svg10.dtd">
<svg version="1.0" xmlns="http://www.w3.org/2000/svg"
 width="700.000000pt" height="700.000000pt" viewBox="0 0 700.000000 700.000000"
 preserveAspectRatio="xMidYMid meet">
<metadata>
Created by potrace 1.14, written by Peter Selinger 2001-2017
</metadata>
<g transform="translate(0.000000,700.000000) scale(0.100000,-0.100000)"
fill="#000000" stroke="none">
<path d="M610 6980 c6 -11 17 -20 25 -20 8 0 15 -5 15 -11 0 -5 6 -7 13 -3 10
6 10 4 0 -7 -19 -19 -16 -28 8 -24 18 4 19 2 7 -12 -9 -12 -9 -15 0 -9 8 5 12
0 12 -14 0 -12 5 -18 10 -15 6 3 10 1 10 -5 0 -6 4 -9 9 -6 11 7 23 -22 14
-36 -4 -7 2 -9 18 -5 23 6 23 5 5 -8 -19 -15 -19 -15 4 -15 13 0 21 -3 17 -6
-3 -4 2 -14 11 -23 10 -9 12 -12 5 -7 -10 6 -12 4 -7 -8 3 -9 15 -16 25 -16
21 0 26 -16 7 -23 -7 -3 -2 -6 12 -6 18 -1 21 -4 11 -10 -11 -7 -9 -10 8 -16
18 -6 27 -28 22 -58 -1 -5 3 -6 9 -2 6 3 8 10 5 15 -3 5 0 12 7 16 7 4 10 4 6
-1 -4 -4 -3 -14 3 -21 6 -8 9 -20 6 -28 -4 -10 0 -14 13 -11 14 3 17 -1 13
-12 -5 -13 -2 -15 11 -10 9 4 15 3 11 -2 -3 -6 3 -14 12 -20 10 -6 13 -11 8
-11 -6 0 -16 5 -22 11 -8 8 -13 7 -18 -2 -5 -8 -4 -10 3 -5 7 4 12 3 12 -3 0
-5 9 -13 20 -16 11 -3 20 -15 20 -26 0 -10 5 -19 11 -19 5 0 7 -5 3 -12 -4 -6
-3 -8 3 -5 6 4 19 -1 29 -9 19 -15 19 -15 -1 -10 -19 6 -19 5 -2 -8 10 -8 19
-23 20 -34 0 -11 5 -19 9 -16 4 3 4 12 1 21 -6 15 -5 16 9 3 8 -8 13 -21 10
-29 -3 -8 -1 -12 5 -8 6 4 10 -1 9 -10 0 -10 4 -18 11 -18 6 0 15 -4 20 -9 5
-5 3 -6 -4 -2 -7 4 -13 2 -13 -3 0 -6 7 -11 16 -11 10 0 14 -5 10 -16 -3 -8
-2 -12 4 -9 6 3 10 0 10 -8 0 -8 8 -21 18 -28 15 -13 16 -12 3 4 -7 9 -9 17
-3 17 16 0 22 -26 9 -40 -9 -10 -9 -11 1 -6 6 4 12 2 12 -4 0 -6 5 -8 10 -5 6
3 10 -1 10 -9 0 -9 5 -16 10 -16 6 0 10 -5 10 -11 0 -5 -5 -7 -12 -3 -6 4 -8
3 -4 -4 3 -6 15 -9 26 -7 14 3 17 -1 13 -12 -5 -12 -3 -14 8 -8 12 7 12 6 1
-7 -10 -12 -10 -17 1 -27 8 -6 17 -7 22 -3 4 4 6 -2 3 -14 -3 -13 0 -21 8 -21
7 0 11 4 8 9 -3 4 3 5 12 1 11 -4 13 -8 6 -11 -17 -5 -15 -22 4 -22 8 0 12 -4
9 -10 -3 -5 -1 -10 6 -10 8 0 8 -4 -1 -15 -10 -12 -10 -15 0 -15 10 0 10 -3 0
-15 -10 -12 -10 -15 1 -15 11 0 11 -2 -1 -10 -12 -8 -12 -10 -1 -10 11 0 11
-3 1 -15 -10 -12 -10 -15 0 -15 10 0 10 -3 0 -15 -7 -8 -8 -15 -3 -15 11 0 10
-50 -1 -68 -4 -7 -2 -12 6 -12 10 0 10 -2 -1 -9 -11 -7 -11 -9 0 -14 10 -4 9
-6 -3 -6 -11 -1 -15 -6 -12 -16 4 -8 2 -15 -4 -15 -6 0 -13 6 -15 13 -6 12
-11 -16 -8 -43 1 -12 0 -12 -7 -2 -5 7 -16 10 -26 6 -14 -5 -15 -9 -4 -15 10
-7 11 -9 0 -9 -8 0 -10 -5 -6 -12 5 -9 2 -8 -9 1 -15 12 -17 12 -12 -1 3 -8
-2 -21 -12 -29 -16 -13 -17 -12 -5 3 10 12 10 18 1 24 -7 4 -9 3 -6 -3 4 -6 0
-16 -9 -23 -8 -7 -13 -19 -10 -27 4 -10 1 -11 -13 -4 -16 9 -18 7 -15 -15 2
-20 0 -23 -11 -14 -10 8 -15 8 -21 -1 -5 -8 -3 -9 6 -4 9 5 11 4 6 -3 -4 -7
-15 -12 -24 -13 -10 0 -12 -3 -5 -6 10 -3 10 -7 0 -18 -7 -7 -15 -11 -19 -9
-4 3 -12 -5 -18 -16 -6 -11 -15 -18 -21 -15 -5 4 -9 3 -8 -2 3 -18 -3 -47 -8
-35 -2 6 -9 9 -14 6 -6 -3 -5 -11 2 -20 10 -12 9 -13 -4 -9 -8 4 -18 1 -22 -4
-3 -6 -10 -9 -14 -7 -4 3 -7 -7 -7 -22 1 -18 -6 -30 -22 -38 -29 -14 -43 -29
-19 -21 12 4 16 3 11 -4 -3 -6 -14 -9 -24 -6 -13 3 -17 0 -13 -9 3 -8 -6 -29
-20 -48 -15 -18 -24 -36 -21 -39 3 -3 -4 -3 -15 0 -17 4 -20 2 -15 -11 4 -11
1 -16 -10 -16 -9 0 -13 -6 -10 -15 4 -10 -3 -18 -20 -25 -22 -8 -25 -13 -17
-29 9 -15 7 -18 -7 -17 -11 1 -16 -5 -14 -16 3 -21 -8 -23 -28 -5 -12 10 -12
9 -2 -5 9 -11 10 -18 2 -23 -5 -3 -10 -15 -10 -25 0 -10 -4 -22 -10 -25 -6 -4
-7 1 -3 12 9 26 -2 13 -22 -26 -12 -24 -13 -31 -3 -27 7 4 3 -1 -9 -10 -13 -9
-23 -23 -23 -31 0 -9 -5 -11 -12 -7 -8 5 -8 2 1 -10 8 -9 10 -16 5 -14 -5 2
-9 0 -9 -4 0 -4 -9 -13 -19 -21 -12 -9 -17 -20 -13 -30 4 -11 2 -14 -9 -10 -8
3 -14 2 -13 -3 4 -14 -23 -64 -34 -64 -6 0 -7 -3 -4 -6 4 -4 14 -1 23 7 16 13
16 12 4 -8 -8 -12 -18 -19 -22 -17 -4 3 -8 -5 -8 -18 0 -27 -33 -81 -43 -71
-7 6 -10 -10 -10 -49 0 -10 -4 -15 -10 -11 -7 4 -8 0 -3 -12 5 -15 4 -16 -8
-6 -12 10 -13 8 -9 -10 5 -17 3 -20 -8 -14 -8 5 -11 5 -7 0 4 -4 2 -15 -5 -24
-10 -14 -10 -14 5 -3 12 10 18 10 24 1 4 -8 3 -9 -4 -5 -7 4 -12 1 -12 -9 0
-9 -4 -14 -9 -11 -5 3 -12 -1 -15 -10 -3 -8 -2 -13 2 -10 4 2 8 -4 8 -15 0
-12 -4 -15 -10 -9 -6 6 -15 10 -21 10 -5 0 -4 -4 4 -9 12 -8 12 -12 -3 -26
-12 -13 -14 -21 -6 -30 8 -10 8 -15 -1 -21 -8 -5 -9 -3 -4 6 5 9 4 11 -4 6 -9
-6 -9 -11 0 -22 10 -12 9 -13 -6 -8 -15 6 -16 4 -5 -16 10 -18 9 -21 -1 -15
-9 6 -11 3 -6 -9 5 -11 3 -15 -5 -10 -7 5 -9 2 -5 -9 3 -9 0 -18 -9 -21 -8 -3
-14 -9 -13 -13 1 -4 0 -10 -1 -13 -5 -15 -11 -47 -11 -63 0 -9 -5 -15 -11 -11
-6 4 -6 -2 1 -15 9 -16 9 -21 0 -21 -7 0 -9 -3 -6 -7 4 -3 -1 -12 -11 -20 -16
-12 -16 -13 0 -7 10 3 18 1 18 -5 0 -6 -7 -11 -16 -11 -10 0 -14 -6 -11 -14 3
-7 -1 -23 -9 -35 -13 -18 -13 -20 0 -15 11 4 13 0 9 -15 -3 -12 -11 -21 -18
-21 -15 0 -15 -42 0 -52 6 -5 5 -8 -4 -8 -8 0 -11 -7 -8 -20 4 -14 0 -20 -11
-20 -11 0 -13 -3 -6 -8 6 -4 14 -16 17 -27 7 -20 7 -20 -8 -1 -17 23 -20 14
-5 -15 9 -15 7 -21 -5 -25 -10 -4 -12 -10 -6 -18 6 -7 6 -17 1 -26 -5 -9 -5
-19 1 -27 8 -8 5 -16 -10 -25 -25 -15 -28 -30 -4 -21 16 6 16 5 0 -17 -22 -32
-22 -46 0 -29 16 12 17 12 6 -2 -10 -12 -10 -18 0 -29 10 -12 9 -12 -4 -2 -14
10 -18 10 -23 -4 -8 -22 1 -34 21 -27 12 5 10 0 -5 -15 -24 -24 -28 -42 -10
-42 9 0 9 -3 0 -12 -16 -16 -15 -31 0 -22 10 5 10 4 1 -6 -6 -7 -9 -19 -6 -28
5 -11 3 -13 -8 -7 -9 6 -8 0 4 -19 l19 -28 -24 7 c-15 4 -18 3 -10 -3 7 -4 14
-18 17 -30 3 -15 0 -19 -12 -15 -13 5 -13 3 -1 -16 11 -18 11 -23 -2 -31 -10
-6 -11 -10 -2 -10 16 0 16 -47 -1 -53 -9 -4 -9 -6 1 -6 6 -1 12 -8 12 -17 0
-8 -4 -13 -8 -10 -4 2 -8 -4 -8 -14 0 -12 4 -16 11 -10 7 6 11 2 11 -11 0 -10
-4 -19 -9 -19 -5 0 -3 -8 4 -17 12 -15 12 -16 -2 -11 -13 5 -16 2 -11 -14 4
-15 7 -17 13 -6 11 16 3 -57 -7 -74 -4 -7 -3 -8 4 -4 7 4 12 1 12 -8 0 -10 -6
-13 -18 -10 -9 3 -6 -2 8 -10 14 -8 19 -15 11 -16 -10 0 -11 -3 -2 -13 6 -8 8
-17 4 -21 -14 -14 -11 -36 5 -37 14 0 13 -2 -3 -9 -11 -5 -14 -9 -6 -9 11 -1
11 -4 0 -18 -8 -9 -9 -14 -3 -10 7 4 15 0 18 -9 3 -8 2 -13 -3 -10 -5 3 -8 -7
-7 -23 0 -16 4 -27 9 -24 4 2 5 8 2 13 -3 5 -2 11 3 13 4 3 7 -12 7 -33 0 -23
-4 -36 -10 -32 -5 3 -3 -3 5 -13 11 -14 12 -19 2 -22 -9 -4 -7 -9 6 -21 10
-10 12 -13 6 -9 -9 6 -11 2 -7 -12 3 -12 9 -19 12 -16 4 2 8 -2 8 -10 0 -8 -4
-12 -9 -9 -15 10 -8 -9 10 -23 14 -12 14 -14 1 -10 -9 3 -16 -1 -16 -9 0 -7 4
-11 8 -9 4 3 10 -2 13 -11 4 -10 2 -13 -7 -9 -6 4 -3 -1 7 -9 18 -15 15 -21
-8 -17 -5 1 -4 -4 2 -12 7 -8 10 -23 6 -33 -5 -16 -4 -16 5 -4 9 13 11 12 12
-5 1 -11 1 -23 0 -27 0 -5 4 -8 10 -8 8 0 8 -5 -1 -15 -7 -8 -8 -15 -3 -15 6
0 9 -10 9 -23 -1 -12 1 -26 5 -32 4 -5 8 -14 8 -20 2 -23 13 -45 22 -45 5 0 9
-16 9 -36 0 -25 3 -33 12 -28 8 5 8 1 -2 -12 -8 -10 -10 -16 -6 -12 14 12 36
-25 24 -39 -7 -9 -7 -13 2 -13 8 0 10 -8 7 -21 -4 -17 -3 -18 9 -8 12 10 13 9
9 -4 -4 -8 -2 -18 4 -21 6 -4 7 -14 4 -23 -5 -12 -3 -14 8 -8 11 6 12 5 2 -6
-15 -16 -17 -33 -3 -24 9 5 15 -15 11 -37 0 -5 4 -8 10 -8 5 0 7 -4 4 -10 -3
-6 -2 -10 4 -10 6 0 7 -7 4 -17 -5 -11 -3 -14 6 -8 10 5 11 2 6 -14 -5 -17 -3
-20 12 -15 16 5 16 4 -1 -10 -20 -16 -19 -16 1 -16 16 0 20 -5 16 -20 -3 -12
0 -20 7 -20 7 0 10 -8 7 -20 -3 -11 -2 -18 2 -16 4 3 13 1 21 -5 8 -5 10 -9 4
-9 -6 0 -11 -7 -11 -15 0 -10 4 -12 13 -4 9 7 12 3 10 -21 -1 -19 3 -30 11
-30 7 0 13 -7 13 -16 0 -9 5 -12 13 -8 9 6 9 4 -1 -8 -11 -14 -10 -17 7 -23
12 -3 21 -11 21 -17 0 -6 -7 -5 -17 3 -14 12 -14 11 1 -13 10 -16 23 -25 30
-21 6 4 5 -1 -3 -10 -8 -10 -11 -20 -7 -24 3 -3 6 -1 6 5 0 7 5 12 12 12 6 0
8 -3 5 -7 -4 -3 1 -15 10 -26 10 -11 12 -17 6 -13 -9 5 -11 2 -7 -8 3 -9 10
-13 15 -10 5 3 9 -2 9 -11 0 -9 4 -13 10 -10 6 3 10 1 10 -4 0 -6 -4 -11 -10
-11 -5 0 -10 -4 -10 -9 0 -6 9 -8 21 -6 18 4 19 2 7 -12 -11 -14 -11 -15 0 -9
10 6 13 2 10 -15 -2 -16 2 -24 12 -24 8 0 14 -8 14 -18 -1 -9 2 -14 7 -11 5 3
9 0 9 -5 0 -6 7 -11 15 -11 8 0 15 -4 15 -10 0 -5 -8 -7 -17 -4 -17 5 -17 5 0
-6 9 -6 14 -16 11 -22 -5 -8 -1 -9 10 -5 9 4 15 3 13 -1 -5 -10 40 -51 49 -43
4 3 4 1 0 -6 -4 -7 -14 -10 -24 -7 -9 2 -7 -1 6 -8 15 -7 22 -18 19 -30 -3
-10 -2 -16 2 -13 13 8 50 -24 53 -47 2 -12 18 -33 37 -45 19 -13 29 -23 22
-23 -9 0 -8 -4 1 -14 7 -8 16 -12 20 -9 4 2 5 -3 2 -11 -4 -12 0 -16 17 -17
23 0 23 -1 4 -9 -19 -8 -19 -9 3 -9 13 -1 22 -7 22 -16 0 -8 5 -15 11 -15 5 0
8 -4 5 -9 -3 -5 1 -14 9 -21 8 -7 15 -10 15 -6 0 3 14 -6 31 -21 17 -16 35
-27 40 -26 4 2 5 -5 2 -14 -5 -12 -3 -14 8 -8 11 7 11 5 -1 -10 -14 -17 -13
-18 2 -12 10 3 18 2 18 -4 0 -6 5 -7 12 -3 7 4 8 3 4 -5 -4 -6 -13 -8 -19 -4
-7 3 -3 -3 7 -15 11 -12 16 -25 13 -29 -4 -3 -7 -2 -7 4 0 6 -7 14 -16 17 -8
3 -12 2 -9 -3 3 -5 1 -12 -5 -16 -7 -4 -6 -14 2 -28 10 -20 10 -21 -6 -7 -16
13 -18 12 -16 -5 4 -34 0 -46 -10 -40 -5 3 -10 1 -10 -5 0 -6 -5 -8 -12 -4 -8
5 -8 2 1 -10 12 -15 12 -17 0 -14 -8 2 -13 -3 -11 -11 2 -9 -3 -11 -15 -7 -14
6 -16 5 -5 -5 6 -7 12 -17 12 -23 0 -5 -3 -6 -7 -3 -10 10 -35 -31 -27 -45 5
-7 3 -8 -6 -3 -10 6 -12 3 -7 -14 5 -19 3 -20 -11 -9 -13 11 -15 10 -10 -10 4
-16 2 -25 -8 -29 -9 -3 -13 -12 -9 -21 4 -12 3 -12 -9 -3 -12 10 -14 8 -12
-13 2 -15 -5 -32 -15 -42 -14 -13 -19 -14 -19 -4 0 7 -3 10 -6 7 -4 -4 -1 -14
7 -24 9 -11 10 -14 2 -9 -8 4 -13 2 -13 -8 0 -8 -5 -18 -12 -22 -7 -5 -8 -3
-3 6 6 9 4 11 -5 5 -10 -6 -9 -11 6 -23 16 -13 17 -14 2 -9 -12 4 -18 1 -18
-8 0 -8 -5 -14 -11 -13 -16 4 -21 -35 -6 -45 8 -6 5 -7 -7 -3 -13 5 -17 2 -12
-9 3 -8 1 -15 -3 -15 -5 0 -12 6 -14 13 -3 6 -4 -1 -4 -17 1 -18 -4 -31 -13
-33 -13 -4 -13 -3 0 7 13 10 13 11 0 7 -8 -2 -15 -15 -15 -29 0 -15 -4 -30 -9
-35 -5 -4 -7 -3 -3 3 3 6 0 11 -7 11 -8 0 -11 -9 -8 -25 4 -20 2 -24 -11 -19
-11 4 -14 2 -11 -7 3 -7 -2 -16 -12 -20 -13 -5 -14 -9 -5 -20 9 -11 9 -16 0
-22 -8 -5 -10 -3 -5 7 4 8 1 6 -7 -3 -8 -10 -18 -14 -22 -10 -5 4 -5 1 -1 -6
4 -7 13 -9 19 -5 7 4 6 0 -2 -10 -7 -9 -17 -15 -21 -12 -4 3 -11 -2 -14 -11
-3 -8 -2 -12 3 -9 5 3 13 1 16 -5 4 -6 3 -10 -2 -9 -27 5 -35 -1 -23 -16 11
-13 10 -14 -4 -9 -13 5 -15 2 -9 -12 6 -16 4 -17 -9 -6 -13 10 -16 10 -15 0 1
-38 -4 -50 -18 -44 -13 5 -14 2 -4 -16 10 -18 9 -20 -5 -15 -10 4 -15 3 -11
-3 4 -7 866 -10 2496 -10 1658 0 2488 3 2484 10 -3 5 -1 10 5 10 6 0 8 4 5 10
-4 6 1 7 11 3 13 -5 16 -3 11 10 -3 9 -2 17 4 17 6 0 7 6 3 13 -6 9 -5 9 7 0
13 -11 15 -9 15 10 -1 12 5 22 12 23 23 3 24 4 13 18 -9 11 -8 14 6 12 12 0
19 7 21 22 3 18 6 21 17 12 11 -9 12 -7 8 11 -4 15 -3 20 5 15 7 -4 12 -1 12
9 0 8 7 18 15 21 8 4 15 10 15 16 0 5 -5 6 -12 2 -7 -4 -8 -3 -4 4 4 6 13 9
21 6 10 -4 12 0 8 15 -3 13 -1 21 6 21 7 0 9 -5 5 -12 -5 -7 -3 -8 5 -4 7 5
10 14 7 21 -3 8 3 17 14 20 12 4 17 13 15 26 -3 17 -1 18 18 7 20 -10 21 -10
8 6 -8 9 -10 16 -5 15 20 -4 26 2 15 15 -9 11 -8 14 6 12 12 0 19 7 21 22 2
12 8 22 13 22 6 0 7 -5 3 -12 -4 -7 -3 -8 5 -4 6 4 9 12 6 17 -4 5 1 12 9 15
9 3 16 10 16 16 0 5 -4 6 -10 3 -6 -3 -10 -4 -10 0 0 3 12 10 26 15 14 6 23
14 20 19 -3 5 1 11 9 15 8 3 15 15 15 26 0 11 5 20 11 20 5 0 7 -5 3 -12 -4
-7 -3 -8 5 -4 6 4 9 12 6 17 -4 5 0 12 9 15 8 3 13 14 11 26 -4 16 -2 18 11 7
12 -10 13 -9 8 6 -6 15 -3 17 14 13 15 -4 19 -2 15 8 -3 8 -10 11 -17 8 -6 -3
-1 4 12 15 13 11 21 25 17 31 -3 5 1 10 10 10 10 0 13 -5 9 -12 -4 -7 -3 -8 4
-4 6 4 8 14 5 23 -5 12 -3 14 8 8 12 -8 12 -6 0 8 -8 10 -11 20 -7 24 3 3 6 1
6 -7 0 -10 4 -10 17 1 15 12 16 12 8 -1 -7 -13 -6 -13 6 -1 11 10 11 15 1 18
-6 3 -9 9 -6 14 3 6 11 5 20 -2 12 -10 13 -9 8 5 -4 9 -1 16 6 16 10 0 10 3 0
15 -11 13 -10 14 4 9 14 -6 21 4 17 28 0 4 9 5 20 3 18 -4 19 -2 7 12 -7 9 -8
14 -3 11 6 -4 17 -3 25 3 9 5 10 9 3 9 -6 0 -9 8 -6 19 3 13 10 18 21 14 9 -4
13 -2 9 4 -4 6 3 13 14 16 12 3 18 10 14 16 -3 6 0 11 7 11 9 0 9 3 -2 10 -13
8 -12 10 3 10 11 0 23 13 31 31 7 17 15 29 17 28 2 -2 13 3 24 10 14 9 15 11
3 7 -12 -3 -15 -1 -11 9 3 8 10 12 16 8 6 -4 8 0 4 11 -6 14 -4 15 16 5 20
-11 21 -11 8 4 -10 13 -10 17 -1 17 9 0 9 4 -1 17 -13 15 -12 15 8 5 19 -10
21 -9 17 11 -2 12 -2 16 2 9 3 -6 10 -9 15 -6 6 3 5 11 -2 20 -10 12 -8 13 7
8 10 -4 16 -3 12 1 -5 5 1 15 13 23 11 8 18 20 15 27 -2 7 5 16 17 19 17 5 19
8 9 15 -11 6 -9 10 7 14 12 3 21 12 21 21 0 9 7 16 15 16 9 0 12 6 8 17 -4 10
-2 14 4 10 6 -4 13 3 16 14 4 15 11 20 21 16 9 -4 16 -2 16 3 0 6 -9 10 -20
10 -19 0 -25 11 -20 35 1 6 -11 -1 -26 -15 -20 -19 -26 -20 -21 -7 4 9 2 17
-3 17 -6 0 -10 -8 -10 -17 0 -15 -1 -15 -13 1 -12 17 -15 17 -29 2 -12 -12
-18 -13 -21 -3 -4 9 -8 9 -15 -2 -8 -11 -10 -11 -15 0 -5 12 -7 12 -15 0 -7
-9 -11 -10 -13 -2 -3 7 -17 14 -31 15 -15 2 -25 -1 -22 -5 3 -5 2 -9 -3 -10
-4 0 -16 -2 -26 -4 -9 -2 -15 1 -11 6 3 5 11 6 17 2 7 -4 6 0 -2 10 -7 9 -16
17 -19 17 -3 0 -3 -3 1 -6 3 -3 1 -12 -6 -19 -9 -9 -14 -9 -25 1 -14 14 -45 8
-36 -8 3 -5 -3 -4 -14 3 -17 11 -24 10 -38 -2 -11 -9 -15 -9 -10 -1 4 7 2 12
-6 13 -7 1 -2 5 12 9 24 8 24 8 3 9 -30 1 -30 17 0 25 16 4 19 8 9 15 -11 7
-11 9 2 14 9 4 16 1 16 -5 0 -6 3 -8 6 -5 4 4 1 14 -7 24 -9 11 -10 14 -1 9 7
-4 12 -2 12 4 0 6 5 8 10 5 6 -3 10 -1 10 4 0 6 -6 11 -12 11 -7 1 -2 7 11 14
18 10 20 15 10 19 -8 3 -3 6 11 6 20 1 22 3 10 11 -11 7 -11 10 -2 10 7 0 10
4 7 10 -3 5 2 10 12 10 14 0 15 2 5 9 -11 6 -10 10 3 15 10 3 15 12 12 21 -4
9 -1 12 7 9 9 -4 13 3 11 20 -2 17 4 31 18 41 12 8 16 15 9 15 -7 0 -10 5 -7
10 4 6 10 8 15 5 8 -5 23 31 25 57 0 4 9 14 20 23 11 9 13 13 5 9 -12 -5 -12
-4 -3 6 6 7 10 18 9 24 -2 6 -1 8 1 4 9 -15 25 -8 19 7 -3 9 1 18 8 21 8 3 12
14 8 26 -3 14 -1 19 6 14 7 -4 10 1 7 14 -2 12 2 23 9 26 8 3 16 14 19 25 3
10 2 17 -2 14 -4 -2 -8 2 -8 10 0 8 3 13 5 10 3 -3 12 4 19 15 11 15 12 24 4
34 -13 15 -5 27 14 20 7 -3 16 0 21 7 5 8 3 10 -6 4 -10 -6 -12 -4 -7 9 4 10
7 23 7 30 0 7 10 18 23 25 12 6 15 10 6 7 -9 -2 -16 2 -16 10 0 7 4 11 8 8 4
-2 10 5 14 16 4 12 11 17 18 13 7 -3 3 4 -8 17 -11 13 -15 20 -9 17 16 -10 28
25 12 35 -10 6 -9 8 3 8 9 0 20 7 23 16 6 15 4 15 -10 3 -16 -13 -16 -12 -5 9
6 12 9 28 5 35 -6 9 -5 9 7 0 13 -11 15 -8 14 22 -2 29 0 33 12 24 11 -9 12
-8 7 5 -3 9 -11 16 -18 16 -6 0 -5 4 4 9 8 6 17 8 21 5 9 -5 5 23 -4 32 -3 4
3 21 15 38 l22 31 -24 -20 -23 -20 11 21 c6 12 8 24 4 28 -3 4 0 4 9 1 10 -4
15 1 16 17 2 17 0 19 -6 9 -7 -10 -9 -6 -8 12 2 19 5 23 15 15 9 -8 11 -7 7 4
-3 8 -1 27 5 42 5 15 6 25 1 22 -11 -7 -8 21 4 31 4 5 5 1 0 -7 -5 -8 -4 -12
0 -7 12 10 16 39 5 32 -5 -3 -12 0 -16 6 -4 7 -3 9 3 6 6 -4 19 3 29 16 15 16
15 19 2 9 -15 -12 -17 -11 -15 7 1 12 6 21 12 21 5 0 1 8 -10 17 -14 11 -15
14 -4 10 21 -7 33 41 16 62 -10 12 -9 13 7 8 16 -6 17 -5 6 8 -7 8 -17 12 -23
8 -6 -3 -7 -1 -3 6 4 6 11 9 16 6 5 -3 11 -1 15 5 3 5 1 10 -6 10 -8 0 -8 4 2
16 10 13 10 17 -2 25 -10 6 -10 9 -1 9 6 0 12 5 12 11 0 5 -4 8 -8 5 -5 -3 -9
1 -9 9 0 8 5 11 10 8 6 -4 8 6 4 26 -4 18 -3 30 1 27 5 -3 9 1 9 9 0 8 -4 12
-8 10 -4 -3 -6 6 -5 20 0 14 5 25 10 25 5 0 3 7 -4 15 -10 12 -9 15 4 15 10 0
14 5 11 10 -4 6 -10 8 -14 6 -4 -3 -7 24 -6 59 0 35 3 61 6 59 4 -2 9 5 12 16
3 11 0 23 -5 27 -6 3 -8 1 -4 -5 3 -6 2 -13 -2 -16 -16 -9 -8 48 8 62 8 8 10
11 3 8 -6 -4 -14 -2 -17 3 -3 5 1 12 10 15 14 5 13 9 -4 33 -18 27 -20 59 -2
48 5 -3 12 0 16 6 4 8 3 9 -4 5 -16 -10 -34 28 -20 42 9 9 9 12 -1 12 -11 0
-11 3 -1 15 10 11 10 19 2 27 -6 6 -8 18 -4 27 5 14 4 14 -14 1 -13 -10 -12
-7 4 12 17 19 20 28 11 33 -8 5 -10 4 -5 -3 5 -8 1 -10 -9 -5 -9 3 -12 9 -7
12 14 9 24 61 12 61 -6 0 -8 -4 -5 -10 3 -5 1 -10 -4 -10 -14 0 -14 13 1 28 9
9 9 12 -2 12 -13 0 -13 2 0 10 13 8 12 10 -4 10 -20 0 -20 0 0 16 18 14 18 15
-6 8 l-25 -6 22 19 c21 19 21 20 3 33 -15 10 -16 16 -7 22 9 6 9 8 0 8 -7 0
-13 5 -13 11 0 5 5 7 11 4 6 -4 5 3 -3 15 -11 18 -11 23 0 27 9 4 6 11 -9 24
-15 13 -17 19 -8 19 11 1 10 3 -2 10 -11 6 -15 18 -11 36 3 16 1 24 -4 21 -6
-3 -11 4 -11 16 -2 17 0 19 7 7 8 -12 10 -11 7 5 -1 11 -6 26 -10 33 -5 6 -5
18 -1 25 6 9 5 9 -7 0 -12 -10 -15 -8 -16 10 -1 12 3 25 10 29 8 5 6 8 -7 8
-15 0 -16 3 -7 14 8 10 9 16 1 21 -6 3 -7 12 -3 18 5 9 3 9 -8 0 -11 -9 -14
-7 -14 13 0 13 5 24 10 24 6 0 3 4 -5 9 -8 6 -18 7 -22 5 -4 -3 -8 0 -8 5 0 6
8 11 18 12 10 0 12 3 4 6 -6 2 -10 9 -7 14 4 5 -2 6 -12 2 -14 -5 -16 -4 -7 8
13 16 -7 64 -22 51 -4 -4 -2 2 6 12 8 11 10 17 4 13 -7 -4 -15 0 -18 9 -3 8
-2 13 2 10 5 -3 9 1 9 8 0 8 -6 12 -13 9 -9 -3 -11 2 -7 16 4 16 1 21 -13 21
-11 0 -15 3 -9 8 6 4 10 13 9 20 -1 6 -2 16 -3 22 0 5 -9 6 -18 3 -15 -6 -16
-4 -5 9 7 9 9 18 3 20 -5 1 -11 10 -13 18 -2 8 -9 21 -16 29 -10 10 -10 16 -2
21 7 5 4 9 -11 13 -19 5 -20 8 -9 21 9 12 9 16 1 16 -7 0 -10 4 -6 9 3 5 -2
11 -12 13 -9 2 -17 14 -19 28 -4 38 -9 59 -19 67 -4 4 -5 2 -1 -4 4 -7 2 -13
-4 -13 -6 0 -10 8 -9 18 3 30 -1 42 -12 42 -8 0 -7 -6 2 -17 13 -16 12 -17 -4
-4 -9 8 -15 16 -12 19 3 3 -2 16 -11 30 -12 18 -12 23 -3 17 8 -3 7 -1 -2 7
-9 7 -14 19 -11 27 3 8 0 11 -7 7 -6 -4 -11 -2 -11 4 0 6 -5 8 -11 4 -8 -5 -8
-1 0 14 9 17 8 22 -10 27 -16 5 -18 9 -8 21 7 9 8 14 3 13 -23 -4 -34 3 -34
22 0 23 -37 62 -50 54 -10 -6 -7 15 4 34 6 10 5 12 -2 7 -7 -4 -12 -2 -12 4 0
6 -4 8 -10 5 -5 -3 -10 1 -10 10 0 10 5 13 13 9 6 -4 -1 7 -17 24 -16 17 -34
29 -39 25 -6 -3 -7 -1 -3 5 4 7 2 12 -3 12 -6 0 -10 3 -10 8 4 22 -3 32 -21
32 -11 0 -19 3 -19 8 4 24 -2 42 -13 36 -8 -5 -9 -2 -5 9 3 9 2 19 -4 22 -5 4
-7 10 -5 14 3 4 -1 8 -9 8 -13 0 -13 -3 0 -17 13 -14 13 -17 1 -17 -8 0 -14 3
-14 6 2 12 -16 47 -33 62 -15 12 -16 18 -6 29 10 10 8 10 -12 0 -13 -7 -21 -8
-17 -2 4 6 -1 15 -10 20 -9 5 -15 12 -15 15 3 21 -1 27 -15 27 -9 0 -12 5 -8
12 5 8 2 9 -11 4 -14 -5 -16 -4 -7 7 9 11 6 17 -13 27 -14 7 -25 19 -25 26 0
8 -6 11 -17 7 -11 -4 -14 -3 -9 5 4 7 2 12 -4 12 -6 0 -8 5 -4 12 5 7 2 9 -9
5 -9 -3 -18 0 -21 9 -3 9 -11 12 -17 8 -8 -4 -9 -3 -5 5 4 6 13 9 19 5 7 -3 4
1 -5 9 -10 8 -14 18 -10 23 4 4 -2 2 -13 -6 -11 -8 -17 -10 -13 -6 10 12 -32
47 -46 39 -6 -4 -5 1 3 10 12 16 12 17 -5 11 -10 -4 -16 -4 -12 1 9 10 -16 35
-36 35 -14 0 -20 12 -17 33 0 4 -6 7 -15 7 -9 0 -12 5 -8 13 5 8 2 7 -9 -2
-15 -12 -17 -12 -10 4 5 14 3 17 -10 12 -12 -4 -22 2 -34 21 -22 34 -43 56
-43 45 0 -5 3 -13 8 -19 4 -5 0 -2 -9 8 -9 9 -20 14 -25 10 -5 -4 -2 2 6 12
14 18 13 18 -10 11 -22 -7 -23 -6 -11 9 12 14 12 16 -4 10 -12 -5 -24 1 -37
17 -11 13 -17 17 -13 9 4 -8 -1 -6 -9 4 -9 11 -16 23 -16 28 0 4 -5 8 -11 8
-8 0 -8 -4 0 -14 9 -11 9 -16 0 -22 -7 -4 -9 -3 -6 3 4 6 -2 18 -13 28 -16 14
-18 21 -8 28 10 6 8 7 -4 4 -9 -3 -24 3 -33 13 -10 11 -21 17 -26 15 -4 -3
-14 2 -22 10 -9 8 -20 15 -26 15 -6 0 -11 6 -11 13 0 9 -3 8 -9 -2 -7 -11 -10
-9 -16 9 -6 18 -9 20 -17 9 -7 -10 -8 -8 -5 8 4 19 2 21 -13 13 -24 -13 -33
-13 -25 0 3 6 0 10 -8 10 -8 0 -19 10 -26 23 -6 12 -9 14 -7 4 5 -14 2 -16
-12 -8 -9 5 -25 18 -34 28 -28 30 -42 38 -65 37 -12 -1 -20 3 -17 7 3 5 -1 9
-10 9 -8 0 -17 -6 -20 -12 -4 -9 -5 -8 -5 2 1 8 1 22 0 30 -1 13 -2 13 -11 0
-8 -13 -10 -12 -10 4 0 16 -3 17 -12 8 -10 -10 -15 -7 -26 10 -7 13 -11 15 -8
6 3 -12 1 -15 -9 -11 -8 3 -13 9 -10 13 3 4 -10 13 -28 20 -17 6 -45 19 -61
27 -16 9 -26 11 -22 5 5 -8 2 -10 -8 -6 -9 3 -13 10 -10 15 8 13 -10 11 -23
-2 -8 -8 -15 -6 -25 10 -7 11 -16 21 -21 21 -4 0 -5 -5 -1 -12 4 -7 3 -8 -4
-4 -7 4 -12 14 -12 22 0 8 -5 14 -11 14 -5 0 -7 -4 -4 -10 3 -5 1 -10 -4 -10
-10 0 -15 14 -12 33 1 5 -3 6 -9 2 -6 -3 -8 -10 -5 -15 3 -5 0 -12 -6 -16 -8
-4 -9 -3 -5 4 4 7 1 12 -8 12 -9 0 -16 5 -16 11 0 5 -5 7 -10 4 -6 -3 -10 -1
-10 6 0 8 -9 5 -22 -7 -13 -10 -17 -12 -11 -4 20 22 15 30 -12 20 -16 -6 -26
-6 -31 1 -3 6 -14 9 -24 6 -14 -3 -17 0 -15 14 2 10 -1 22 -7 25 -7 4 -8 2 -4
-4 5 -8 -1 -11 -18 -10 -15 1 -26 6 -26 11 0 5 -8 3 -17 -4 -14 -12 -16 -12
-8 0 6 11 4 13 -8 8 -9 -3 -19 -1 -23 5 -4 6 -3 8 4 4 6 -3 13 -2 16 3 7 11
-13 9 -33 -3 -10 -6 -12 -5 -7 2 4 7 1 12 -8 12 -8 0 -17 -6 -19 -12 -3 -7 -6
-4 -6 7 -1 17 -3 17 -11 5 -7 -11 -10 -12 -10 -2 0 8 -6 12 -13 9 -6 -2 -18 3
-25 12 -7 9 -12 12 -11 6 3 -26 -3 -28 -17 -5 -8 14 -13 17 -10 7 5 -15 3 -16
-14 -7 -11 6 -26 8 -32 4 -8 -5 -9 -2 -5 9 3 10 2 17 -3 17 -9 0 -14 -15 -11
-33 1 -5 -3 -5 -9 -2 -6 4 -9 13 -6 21 3 7 0 16 -6 20 -7 5 -8 2 -3 -6 6 -10
4 -12 -8 -7 -9 3 -18 1 -21 -6 -2 -7 -5 -3 -5 8 -1 17 -3 17 -11 5 -8 -12 -10
-12 -10 -1 0 10 -3 11 -14 2 -11 -10 -21 -9 -45 3 -35 18 -45 20 -36 6 3 -6
-1 -7 -9 -4 -9 3 -13 11 -9 18 4 6 -5 3 -20 -7 -18 -12 -25 -13 -21 -4 3 8 -2
14 -11 14 -8 0 -15 -4 -15 -9 0 -5 -5 -6 -10 -3 -8 5 -7 12 2 23 12 15 11 16
-4 4 -9 -8 -23 -10 -29 -6 -7 4 -9 3 -6 -3 4 -6 0 -13 -8 -17 -8 -3 -19 3 -24
12 -8 14 -10 14 -11 2 0 -13 -2 -13 -9 -1 -12 18 -44 24 -38 7 3 -7 -1 -13 -8
-13 -8 0 -13 5 -12 10 1 5 -4 12 -12 15 -8 2 -11 0 -8 -5 3 -5 -3 -9 -14 -9
-10 0 -19 4 -19 8 0 4 -7 8 -15 8 -8 0 -15 -4 -15 -9 0 -6 -9 -9 -19 -8 -11 0
-17 5 -15 9 3 4 -4 8 -16 8 -12 0 -19 -4 -16 -8 3 -5 -1 -9 -9 -9 -8 0 -12 4
-10 8 3 4 -2 10 -11 13 -8 3 -13 2 -10 -3 11 -17 -22 -19 -45 -4 -12 9 -19 12
-16 6 4 -6 0 -14 -9 -17 -24 -9 -31 -7 -14 4 13 9 13 10 -1 10 -8 0 -21 -6
-28 -12 -11 -10 -13 -10 -7 0 4 6 3 12 -1 12 -5 0 -15 -6 -22 -12 -11 -10 -13
-10 -7 0 4 6 3 12 -1 12 -5 0 -15 -6 -22 -12 -8 -8 -11 -8 -8 -2 10 17 -56 12
-77 -5 -15 -12 -16 -12 -9 5 6 17 5 17 -10 5 -12 -9 -17 -10 -17 -2 0 7 -5 9
-10 6 -6 -4 -8 -11 -5 -16 3 -5 -1 -6 -9 -3 -10 4 -16 1 -16 -7 0 -7 -3 -9 -6
-6 -4 4 -1 14 6 22 7 9 9 15 4 14 -5 -1 -16 -1 -24 0 -12 1 -12 3 -2 10 11 6
10 12 -5 26 -17 17 -17 18 0 12 19 -7 22 0 7 23 -6 9 -5 17 1 21 7 4 3 13 -8
24 -15 16 -16 18 -1 13 10 -4 19 -1 22 8 3 8 2 13 -3 10 -5 -3 -11 1 -14 8 -3
8 -1 16 5 18 6 2 3 12 -8 23 -17 17 -17 18 -1 12 19 -7 22 0 7 23 -6 9 -5 17
1 21 7 4 3 13 -8 24 -15 16 -16 18 -1 13 10 -4 19 -1 22 8 3 8 2 13 -3 10 -5
-3 -11 1 -14 8 -3 8 -1 16 5 18 6 2 3 12 -8 23 -17 17 -17 18 -1 12 20 -7 21
-3 7 24 -11 19 -33 19 -1291 19 -1272 0 -1279 -1 -1269 -20z m2701 -423 c-10
-9 -11 -8 -5 6 3 10 9 15 12 12 3 -3 0 -11 -7 -18z m1550 -274 c13 -17 13 -17
-6 -3 -11 8 -22 16 -24 17 -2 2 0 3 6 3 6 0 17 -8 24 -17z m219 -109 c0 -2 -9
0 -20 6 -11 6 -20 13 -20 16 0 2 9 0 20 -6 11 -6 20 -13 20 -16z m-3790 -48
c0 -11 -19 -15 -25 -6 -3 5 1 10 9 10 9 0 16 -2 16 -4z m4050 -101 c7 -9 8
-15 2 -15 -5 0 -12 7 -16 15 -3 8 -4 15 -2 15 2 0 9 -7 16 -15z m860 -840 c7
-9 8 -15 2 -15 -5 0 -12 7 -16 15 -3 8 -4 15 -2 15 2 0 9 -7 16 -15z m-5828
-902 c-6 -2 -10 -9 -7 -13 3 -5 1 -11 -4 -14 -7 -5 -8 11 -2 32 1 1 7 2 14 1
9 0 9 -2 -1 -6z m-75 -278 c0 -8 -4 -12 -9 -9 -5 3 -6 10 -3 15 9 13 12 11 12
-6z m6473 -1125 c0 -5 -5 -10 -11 -10 -5 0 -7 5 -4 10 3 6 8 10 11 10 2 0 4
-4 4 -10z m-6466 -296 c3 -8 2 -12 -4 -9 -6 3 -10 10 -10 16 0 14 7 11 14 -7z
m6396 -100 c0 -8 -19 -13 -24 -6 -3 5 1 9 9 9 8 0 15 -2 15 -3z m-6379 -37
c-10 -9 -11 -8 -5 6 3 10 9 15 12 12 3 -3 0 -11 -7 -18z m19 -27 c0 -5 -5 -10
-11 -10 -5 0 -7 5 -4 10 3 6 8 10 11 10 2 0 4 -4 4 -10z m6148 -505 c-3 -3 -9
2 -12 12 -6 14 -5 15 5 6 7 -7 10 -15 7 -18z m-54 -513 c3 -5 -1 -9 -9 -9 -8
0 -12 4 -9 9 3 4 7 8 9 8 2 0 6 -4 9 -8z m-5504 -153 c0 -6 -4 -7 -10 -4 -5 3
-10 11 -10 16 0 6 5 7 10 4 6 -3 10 -11 10 -16z m140 -169 c0 -5 -2 -10 -4
-10 -3 0 -8 5 -11 10 -3 6 -1 10 4 10 6 0 11 -4 11 -10z m5255 -120 c3 -5 1
-10 -4 -10 -6 0 -11 5 -11 10 0 6 2 10 4 10 3 0 8 -4 11 -10z"/>
<path d="M3480 6606 c0 -2 8 -10 18 -17 15 -13 16 -12 3 4 -13 16 -21 21 -21
13z"/>
<path d="M3990 6559 c0 -5 5 -7 10 -4 6 3 10 1 10 -4 0 -6 5 -11 11 -11 8 0 8
5 -1 15 -14 17 -30 20 -30 4z"/>
<path d="M4491 6443 c-1 -18 13 -23 29 -11 12 8 12 9 -2 5 -9 -3 -19 -1 -22 6
-3 9 -5 9 -5 0z"/>
<path d="M4710 6361 c0 -6 4 -13 10 -16 6 -3 7 1 4 9 -7 18 -14 21 -14 7z"/>
<path d="M5590 5840 c0 -5 5 -10 11 -10 5 0 7 5 4 10 -3 6 -8 10 -11 10 -2 0
-4 -4 -4 -10z"/>
<path d="M955 5400 c-3 -5 -2 -10 4 -10 5 0 13 5 16 10 3 6 2 10 -4 10 -5 0
-13 -4 -16 -10z"/>
<path d="M875 5294 c-9 -15 -12 -23 -6 -20 11 7 35 46 28 46 -3 0 -12 -12 -22
-26z"/>
<path d="M6246 5108 c3 -5 10 -6 15 -3 13 9 11 12 -6 12 -8 0 -12 -4 -9 -9z"/>
<path d="M521 4723 c-10 -26 -10 -27 4 -9 8 11 15 23 15 28 0 15 -7 8 -19 -19z"/>
<path d="M6780 3486 c0 -2 7 -7 16 -10 8 -3 12 -2 9 4 -6 10 -25 14 -25 6z"/>
<path d="M6795 3249 c-4 -6 -5 -12 -2 -15 2 -3 7 2 10 11 7 17 1 20 -8 4z"/>
<path d="M350 2266 c0 -2 7 -7 16 -10 8 -3 12 -2 9 4 -6 10 -25 14 -25 6z"/>
<path d="M380 2176 c0 -2 7 -7 16 -10 8 -3 12 -2 9 4 -6 10 -25 14 -25 6z"/>
<path d="M6385 1710 c-3 -5 -1 -10 4 -10 6 0 11 5 11 10 0 6 -2 10 -4 10 -3 0
-8 -4 -11 -10z"/>
<path d="M790 1396 c0 -2 7 -7 16 -10 8 -3 12 -2 9 4 -6 10 -25 14 -25 6z"/>
<path d="M876 1287 c3 -10 9 -15 12 -12 3 3 0 11 -7 18 -10 9 -11 8 -5 -6z"/>
<path d="M1094 1018 c-4 -7 -4 -10 1 -6 4 4 15 2 24 -5 14 -11 14 -10 2 6 -16
20 -18 21 -27 5z"/>
</g>
</svg>
